<svg xmlns="http://www.w3.org/2000/svg" viewBox="0 0 64 64"><defs><radialGradient id="g"><stop stop-color="#79472d"/><stop offset="1" stop-color="#15232b"/></radialGradient><radialGradient id="f"><stop stop-color="#fff8bc"/><stop offset=".5" stop-color="#ffc160"/><stop offset="1" stop-color="#e45d32"/></radialGradient></defs><rect width="64" height="64" rx="14" fill="url(#g)"/><circle cx="32" cy="33" r="21" fill="none" stroke="#efb557" stroke-width="2"/><path d="M31 10c9 10-3 13 6 19 3-5 6-7 8-8 4 11 8 27-12 32-22-4-19-21-10-30-1 7 3 9 5 10-3-11 6-15 3-23Z" fill="url(#f)"/><path d="m8 28 6 3m36 7 6 3M17 9l4 5m23 38 3 5" stroke="#ffe2a1" stroke-width="2"/></svg>